<svg viewBox="0 0 500 138" fill="none" xmlns="http://www.w3.org/2000/svg">
	<path
		d="M214.17 113.821H216.763V137.437H214.17V113.821ZM206.258 137.437H208.851V113.821H206.258V137.437ZM193.481 114.062L203.612 137.437H200.751L197.811 130.529H185.515L182.575 137.437H179.875L190.006 114.062C190.326 113.339 190.995 112.884 191.743 112.884C192.492 112.884 193.16 113.339 193.481 114.062ZM196.902 128.36L191.69 116.07L186.45 128.36H196.902ZM157.982 128.655V128.735C157.982 133.661 153.892 137.838 148.359 137.838C142.853 137.838 138.843 133.715 138.843 128.788V128.708C138.843 123.781 142.906 119.605 148.439 119.605C153.919 119.631 157.982 123.728 157.982 128.655ZM155.175 128.735C155.175 124.986 152.235 121.907 148.359 121.907C144.376 121.907 141.65 124.986 141.65 128.655V128.735C141.65 132.483 144.563 135.509 148.439 135.509C152.422 135.509 155.202 132.483 155.202 128.788V128.735H155.175ZM164.905 124.558V120.006H162.313V137.437H164.905V130.475C164.905 125.201 168.006 122.469 171.802 122.469H172.016V119.685C168.701 119.551 166.189 121.639 164.905 124.558ZM130.77 114.196C129.781 115.187 129.247 116.686 129.247 118.694V119.979H126.627V122.148H129.247V137.437H131.813V122.148H137.346V119.979H131.813V118.828C131.813 116.338 132.802 115.106 134.833 115.106C135.715 115.106 136.41 115.267 137.346 115.535V113.286C136.517 112.991 135.689 112.857 134.486 112.857C132.935 112.857 131.652 113.339 130.77 114.196ZM108.102 119.631C105.109 119.631 103.291 121.158 102.141 123.032V119.926H99.5486V137.437H102.141V127.45C102.141 124.183 104.36 121.988 107.354 121.988C110.428 121.988 112.166 124.022 112.166 127.262V137.464H114.758V126.646C114.785 122.469 112.326 119.631 108.102 119.631ZM91.663 129.993C91.663 133.26 89.4176 135.455 86.4505 135.455C83.3764 135.455 81.6389 133.42 81.6389 130.181V119.926H79.0461V130.823C79.0461 134.973 81.5053 137.812 85.702 137.812C88.6959 137.812 90.4868 136.285 91.663 134.411V137.437H94.2292V119.926H91.663V129.993ZM59.0781 115.883V137.437H61.7512V127.102H74.7958V124.826H61.7512V116.231H76.3195V113.821H61.1631C60.0137 113.821 59.0781 114.758 59.0781 115.883ZM247.905 119.631C244.911 119.631 243.093 121.158 241.944 123.032V119.926H239.351V137.437H241.944V127.45C241.944 124.183 244.162 121.988 247.156 121.988C250.23 121.988 251.968 124.022 251.968 127.262V137.464H254.561V126.646C254.587 122.469 252.128 119.631 247.905 119.631ZM289.631 128.655V128.735C289.631 133.661 285.542 137.838 280.008 137.838C274.502 137.838 270.492 133.715 270.492 128.788V128.708C270.492 123.781 274.555 119.605 280.089 119.605C285.595 119.631 289.631 123.728 289.631 128.655ZM286.825 128.735C286.825 124.986 283.884 121.907 280.008 121.907C276.025 121.907 273.299 124.986 273.299 128.655V128.735C273.299 132.483 276.213 135.509 280.089 135.509C284.071 135.509 286.851 132.483 286.851 128.788V128.735H286.825ZM231.438 137.437H234.031V120.006H231.438V137.437ZM232.722 112.884C231.626 112.884 230.743 113.768 230.743 114.865C230.743 115.963 231.626 116.847 232.722 116.847C233.817 116.847 234.7 115.963 234.7 114.865C234.7 113.768 233.817 112.884 232.722 112.884ZM262.874 114.732H260.281V119.979H257.581V122.148H260.281V132.805C260.281 136.339 262.393 137.731 265.199 137.731C266.456 137.731 267.418 137.464 268.327 136.982V134.759C267.418 135.188 266.67 135.375 265.788 135.375C264.023 135.375 262.847 134.599 262.847 132.483V122.148H268.3V119.979H262.847V114.732H262.874ZM409.439 114.732H406.846V119.979H404.146V122.148H406.846V132.805C406.846 136.339 408.958 137.731 411.765 137.731C413.021 137.731 413.983 137.464 414.892 136.982V134.759C413.983 135.188 413.235 135.375 412.353 135.375C410.588 135.375 409.412 134.599 409.412 132.483V122.148H414.865V119.979H409.412V114.732H409.439ZM441.89 124.558V120.006H439.297V137.437H441.89V130.475C441.89 125.201 444.991 122.469 448.787 122.469H449.001V119.685C445.686 119.551 443.173 121.639 441.89 124.558ZM467.953 129.672H453.197C453.598 133.447 456.432 135.589 459.746 135.589C462.313 135.589 464.104 134.599 465.6 133.126L466.937 134.973C465.146 136.714 462.954 137.838 459.666 137.838C454.561 137.838 450.391 134.17 450.391 128.762V128.681C450.391 123.648 454.16 119.605 459.319 119.605C464.825 119.605 467.979 123.728 467.979 128.815C467.979 129.163 467.979 129.377 467.953 129.672ZM465.173 127.744C464.879 124.585 462.954 121.8 459.239 121.8C456.004 121.8 453.545 124.344 453.197 127.744H465.173ZM431.412 129.993C431.412 133.26 429.166 135.455 426.199 135.455C423.125 135.455 421.388 133.42 421.388 130.181V119.926H418.795V130.823C418.795 134.973 421.254 137.812 425.451 137.812C428.445 137.812 430.236 136.285 431.412 134.411V137.437H433.978V119.926H431.412V129.993ZM397.865 129.993C397.865 133.26 395.619 135.455 392.652 135.455C389.578 135.455 387.84 133.42 387.84 130.181V119.926H385.248V130.823C385.248 134.973 387.707 137.812 391.904 137.812C394.897 137.812 396.688 136.285 397.865 134.411V137.437H400.431V119.926H397.865V129.993ZM365.28 115.883V137.437H367.953V127.102H380.997V124.826H367.953V116.231H382.521V113.821H367.365C366.189 113.821 365.28 114.758 365.28 115.883ZM305.67 114.732H303.077V119.979H300.377V122.148H303.077V132.805C303.077 136.339 305.189 137.731 307.996 137.731C309.252 137.731 310.214 137.464 311.123 136.982V134.759C310.214 135.188 309.466 135.375 308.584 135.375C306.819 135.375 305.643 134.599 305.643 132.483V122.148H311.096V119.979H305.643V114.732H305.67ZM352.075 128.842C352.075 129.19 352.075 129.377 352.048 129.699H337.293C337.693 133.474 340.527 135.616 343.842 135.616C346.408 135.616 348.199 134.625 349.696 133.153L351.032 135C349.241 136.741 347.049 137.865 343.761 137.865C338.656 137.865 334.486 134.197 334.486 128.788V128.708C334.486 123.674 338.255 119.631 343.414 119.631C348.894 119.631 352.075 123.728 352.075 128.842ZM349.268 127.744C348.974 124.585 347.049 121.8 343.334 121.8C340.099 121.8 337.64 124.344 337.293 127.744H349.268ZM324.007 119.631C321.013 119.631 319.196 121.158 318.046 123.032V112.804H315.453V137.437H318.046V127.45C318.046 124.183 320.265 121.988 323.259 121.988C326.333 121.988 328.07 124.022 328.07 127.262V137.464H330.663V126.646C330.663 122.469 328.204 119.631 324.007 119.631Z"
		fill="#140700" />
	<path
		d="M485.111 0H14.8891C6.65597 0 0 6.66698 0 14.9137V65.9469C0 70.3916 1.76423 74.6488 4.89174 77.7815L40.8982 113.847V95.6672H485.111C493.344 95.6672 500 89.0002 500 80.7535V14.9137C500 6.66698 493.317 0 485.111 0ZM487.116 83.4845H40.8982V95.6404L12.8575 67.5802V12.1559H487.116V83.4845Z"
		fill="#E60000" />
	<path
		d="M382.307 33.0408V67.5806H373.941V42.1443C373.941 42.1443 366.803 52.3724 364.424 55.7728C362.527 58.4771 358.544 58.4771 356.672 55.7728C354.293 52.3724 347.156 42.1443 347.156 42.1443V67.5806H338.79C338.79 67.5806 338.79 41.6624 338.79 33.0408C338.79 31.3004 339.618 29.6136 341.035 28.6229C343.387 26.9897 346.648 27.5519 348.306 29.9349C351.38 34.326 360.548 47.4458 360.548 47.4458C360.548 47.4458 369.744 34.2992 372.791 29.9349C374.448 27.5787 377.683 26.9897 380.062 28.6229C381.505 29.6136 382.307 31.3004 382.307 33.0408ZM284.366 53.5237C284.366 53.5237 271.989 35.8254 267.873 29.9081C266.215 27.5252 262.954 26.9629 260.575 28.6229C259.185 29.6136 258.357 31.2469 258.357 32.9605C258.357 41.6356 258.357 67.5806 258.357 67.5806H266.723V42.1443C266.723 42.1443 279.1 59.8426 283.216 65.7331C284.873 68.1161 288.135 68.6784 290.514 67.0183C291.904 66.0276 292.732 64.3944 292.732 62.6808C292.732 54.0057 292.732 28.0607 292.732 28.0607H284.366V53.5237ZM410.776 34.4063C414.839 34.4063 418.501 36.2003 421.067 38.9313L425.772 32.3982C421.816 29.1317 416.523 27.311 410.776 27.311C398.667 27.311 388.215 35.4506 388.215 47.8474C388.215 60.2442 398.64 68.3838 410.776 68.3838C416.523 68.3838 421.816 66.5364 425.772 63.2966L421.067 56.7635C418.501 59.4678 414.839 61.2885 410.776 61.2885C403.05 61.2885 397.758 55.2641 397.758 47.8474C397.758 40.4039 403.05 34.4063 410.776 34.4063ZM471.348 47.8206C471.348 60.2175 461.217 68.3571 449.455 68.3571C437.694 68.3571 427.563 60.2175 427.563 47.8206C427.563 35.4238 437.694 27.2842 449.455 27.2842C461.217 27.2842 471.348 35.4238 471.348 47.8206ZM462.099 47.8206C462.099 40.4039 456.967 34.4063 449.455 34.4063C441.944 34.4063 436.811 40.4039 436.811 47.8206C436.811 55.2373 441.944 61.2349 449.455 61.2349C456.967 61.2349 462.099 55.2373 462.099 47.8206ZM321.468 31.5682C325.103 40.5646 335.983 67.5806 335.983 67.5806H327.055L323.526 58.5574H307.408L303.879 67.5806H295.031C295.031 67.5806 305.937 40.5646 309.546 31.5682C310.695 28.7033 312.994 27.2842 315.507 27.2842C318.02 27.2842 320.319 28.7033 321.468 31.5682ZM320.88 51.8369L315.454 38.0477L310.027 51.8369H320.88ZM68.2469 56.9241C68.2469 62.4933 64.1838 67.5806 57.2873 67.5806H35.8492C33.8978 67.5806 32.5078 66.1883 32.5078 64.2337C32.5078 56.0406 32.5078 39.6275 32.5078 31.4343C32.5078 29.4797 33.8978 28.0874 35.8492 28.0874H54.935C61.484 28.0874 66.0015 32.5321 66.0015 37.8871C66.0015 42.305 62.9542 46.1338 58.8109 47.2851C64.1571 47.6064 68.2469 51.5959 68.2469 56.9241ZM40.8478 44.0721C40.8478 44.0721 49.0275 44.0721 51.754 44.0721C54.8013 44.0721 56.7527 42.0908 56.7527 39.6275C56.7527 37.1642 54.8013 35.1828 51.754 35.1828C49.0275 35.1828 40.8478 35.1828 40.8478 35.1828V44.0721ZM59.0782 55.6389C59.0782 52.9614 56.9665 50.7927 53.6786 50.7927C50.4977 50.7927 40.8478 50.7927 40.8478 50.7927V60.4852C40.8478 60.4852 50.5244 60.4852 53.6786 60.4852C56.9665 60.4852 59.0782 58.3164 59.0782 55.6389ZM138.977 53.5237C138.977 53.5237 126.6 35.8254 122.484 29.9081C120.826 27.5252 117.565 26.9629 115.186 28.6229C113.796 29.6136 112.968 31.2469 112.968 32.9605C112.968 41.6356 112.968 67.5806 112.968 67.5806H121.334V42.1443C121.334 42.1443 133.711 59.8426 137.827 65.7331C139.485 68.1161 142.746 68.6784 145.125 67.0183C146.515 66.0276 147.343 64.3944 147.343 62.6808C147.343 54.0057 147.343 28.0607 147.343 28.0607H138.977V53.5237ZM233.096 67.5806H241.783V28.0607H233.096V67.5806ZM190.3 47.6332C190.3 60.6459 180.73 67.5806 169.878 67.5806C169.878 67.5806 161.511 67.5806 158.731 67.5806C156.779 67.5806 155.389 66.1883 155.389 64.2337V31.4343C155.389 29.4797 156.779 28.0874 158.731 28.0874C161.537 28.0874 169.984 28.0874 169.984 28.0874C180.837 28.0607 190.3 34.3528 190.3 47.6332ZM181.131 47.6332C181.131 38.1816 174.101 35.1828 168.193 35.1828H163.756V60.4852H167.98C174.956 60.4852 181.131 56.817 181.131 47.6332ZM95.6193 31.5682C99.2547 40.5646 110.134 67.5806 110.134 67.5806H101.206L97.6775 58.5574H81.5856L78.0571 67.5806H69.2092C69.2092 67.5806 80.1154 40.5646 83.7241 31.5682C84.8735 28.7033 87.1723 27.2842 89.685 27.2842C92.1977 27.2842 94.4699 28.7033 95.6193 31.5682ZM95.0579 51.8369L89.6316 38.0477L84.2052 51.8369H95.0579ZM215.774 31.5682C219.41 40.5646 230.289 67.5806 230.289 67.5806H221.361L217.833 58.5574H201.741L198.212 67.5806H189.364C189.364 67.5806 200.27 40.5646 203.879 31.5682C205.029 28.7033 207.327 27.2842 209.84 27.2842C212.326 27.2842 214.625 28.7033 215.774 31.5682ZM215.186 51.8369L209.76 38.0477L204.334 51.8369H215.186Z"
		fill="#140700" />
</svg>