<svg viewBox="0 0 20 20" fill="none" xmlns="http://www.w3.org/2000/svg">
	<path
		d="M12.2218 17.7779C12.2218 16.5506 11.2269 15.5557 9.99957 15.5557C8.77227 15.5557 7.77734 16.5506 7.77734 17.7779C7.77734 19.0052 8.77227 20.0001 9.99957 20.0001C11.2269 20.0001 12.2218 19.0052 12.2218 17.7779Z"
		fill="#0069B1" />
	<path
		d="M4.44444 17.7779C4.44444 16.5506 3.44952 15.5557 2.22222 15.5557C0.994923 15.5557 0 16.5506 0 17.7779C0 19.0052 0.994923 20.0001 2.22222 20.0001C3.44952 20.0001 4.44444 19.0052 4.44444 17.7779Z"
		fill="#DF4661" />
	<path
		d="M19.9991 17.7779C19.9991 16.5506 19.0042 15.5557 17.7769 15.5557C16.5496 15.5557 15.5547 16.5506 15.5547 17.7779C15.5547 19.0052 16.5496 20.0001 17.7769 20.0001C19.0042 20.0001 19.9991 19.0052 19.9991 17.7779Z"
		fill="#00B0B9" />
	<path
		d="M12.2218 9.99957C12.2218 8.77227 11.2269 7.77734 9.99957 7.77734C8.77227 7.77734 7.77734 8.77227 7.77734 9.99957C7.77734 11.2269 8.77227 12.2218 9.99957 12.2218C11.2269 12.2218 12.2218 11.2269 12.2218 9.99957Z"
		fill="#DF4661" />
	<path
		d="M4.44444 9.99957C4.44444 8.77227 3.44952 7.77734 2.22222 7.77734C0.994923 7.77734 0 8.77227 0 9.99957C0 11.2269 0.994923 12.2218 2.22222 12.2218C3.44952 12.2218 4.44444 11.2269 4.44444 9.99957Z"
		fill="#F6B700" />
	<path
		d="M19.9991 9.99957C19.9991 8.77227 19.0042 7.77734 17.7769 7.77734C16.5496 7.77734 15.5547 8.77227 15.5547 9.99957C15.5547 11.2269 16.5496 12.2218 17.7769 12.2218C19.0042 12.2218 19.9991 11.2269 19.9991 9.99957Z"
		fill="#0069B1" />
	<path
		d="M12.2218 2.22222C12.2218 0.994923 11.2269 0 9.99957 0C8.77227 0 7.77734 0.994923 7.77734 2.22222C7.77734 3.44952 8.77227 4.44444 9.99957 4.44444C11.2269 4.44444 12.2218 3.44952 12.2218 2.22222Z"
		fill="#F6B700" />
	<path
		d="M4.44444 2.22222C4.44444 0.994923 3.44952 0 2.22222 0C0.994923 0 0 0.994923 0 2.22222C0 3.44952 0.994923 4.44444 2.22222 4.44444C3.44952 4.44444 4.44444 3.44952 4.44444 2.22222Z"
		fill="#00B0B9" />
	<path
		d="M19.9991 2.22222C19.9991 0.994923 19.0042 0 17.7769 0C16.5496 0 15.5547 0.994923 15.5547 2.22222C15.5547 3.44952 16.5496 4.44444 17.7769 4.44444C19.0042 4.44444 19.9991 3.44952 19.9991 2.22222Z"
		fill="#DF4661" />
</svg>