<svg width="55" height="41" enable-background="new 0 0 55 41" viewBox="0 0 55 41" xmlns="http://www.w3.org/2000/svg"><path d="m38.9 22.3h-21.9c.2-1.9 1-3.8 2.2-5.3 1.4-1.7 3.2-3 5.4-3.6.8.6 1.9.9 2.9.9h.9c1.1 0 2.1-.3 2.9-.9 2.1.6 4 1.9 5.4 3.6 1.3 1.5 2 3.4 2.2 5.3zm-14.4-14.8v-1.2c0-.8.3-1.5.9-2.1s1.4-.9 2.2-.9h.8c.8 0 1.6.3 2.2.9s.9 1.3.9 2.1v1.2c0 .8-.3 1.5-.9 2.1s-1.4.9-2.2.9h-.8c-.8 0-1.6-.3-2.2-.9s-.9-1.3-.9-2.1z" fill="none" stroke="#727272" stroke-linecap="round" stroke-linejoin="round" stroke-width="2"/><path d="m8.7 38.2h-5.3v.8h-1.4c0-.3 0-.5 0-.9v-6.3c0-.4 0-.6 0-.9h.9 6.2.9v.9 6.2 1h-1.3zm0-1.3v-4.9h-5.3v4.9zm11.8-5.3.4.4c-.1.1-.2.3-.3.7-.6 2-1.2 2.9-2.2 4.2-1 1.1-2.3 2.1-3.9 2.8-.3-.5-.5-.8-.9-1.2 2.9-1.1 4.7-3.1 5.6-5.9h-3.3c-.6 1-1.7 2.2-2.6 2.8-.3-.5-.5-.6-1.1-.9 1.2-.8 2.1-1.8 2.8-3.2.3-.6.5-1.1.6-1.5l1.5.3c-.1.1-.1.1-.2.3s-.2.4-.3.6c-.1.1-.1.1-.1.2l-.1.2h.5 2.4.6c-.3-.5-.5-.9-.8-1.4l.8-.3c.4.6.7 1 1 1.7zm1.9-.7-.8.3c-.3-.6-.6-1.2-.9-1.7l.8-.3c.4.6.7 1.1.9 1.7zm7.9-1 1.3.9c-.2.2-.2.2-.4.4-.8.9-1.6 1.6-2.6 2.3v4.7c0 .6 0 .9.1 1.2h-1.7c.1-.3.1-.5.1-1.2v-3.9c-1.3.8-1.9 1.1-3.9 1.8-.2-.6-.4-.8-.7-1.3 2.2-.6 4-1.5 5.8-2.9.9-.7 1.6-1.5 2-2zm3.9 1.9.9-1.1c1.3.8 2 1.3 2.8 2.1l-.9 1.2c-.9-.9-1.8-1.7-2.8-2.2zm.4 7.2-.4-1.5c.9-.1 2.3-.4 3.3-.8 1.4-.6 2.4-1.4 3.3-2.7.5-.7.8-1.3 1.1-2.2.4.5.6.7 1.2 1.1-.9 2-2 3.3-3.5 4.3-1.1.7-2.5 1.3-4.2 1.7-.5 0-.6 0-.8.1zm14.1-7.6v-.7c0-.6 0-.8-.1-1.2h1.4c0 .3-.1.6-.1 1.2v.7h3 1v1 3.4c0 .5 0 .8.1 1.1h-1.3v-.7h-2.7v2.2c0 .7 0 1 .1 1.4h-1.4c.1-.4.1-.7.1-1.4v-2.2h-2.6v.7h-1.3c0-.4.1-.6.1-1.1v-3.4c0-.4 0-.6 0-1h1zm0 1.2h-2.6v2.4h2.6zm1.2 2.4h2.7v-2.4h-2.7z" fill="#727272"/></svg>