<svg fill="none" height="150" viewBox="0 0 469 150" width="469" xmlns="http://www.w3.org/2000/svg" xmlns:xlink="http://www.w3.org/1999/xlink"><clipPath id="a"><path d="m0 0h469v150h-469z"/></clipPath><g clip-path="url(#a)"><g fill="#000"><path d="m202.199 0c-4.2 0-8.1 2.4-10 7.2-6.1 15.1-24.5 60.6-24.5 60.6h14.9l6-15.2h27.1l6 15.2h15.1s-18.4-45.4-24.5-60.6c-2-4.8-5.8-7.2-10.1-7.2zm-9.1 41.3 9.1-23.2 9.1 23.2z"/><path d="m335.498.5c-19.8 0-36.9 13.7-36.9 34.6s17.1 34.6 36.9 34.6 36.9-13.7 36.9-34.6-17.1-34.6-36.9-34.6zm0 57.1c-12.6 0-21.3-10.1-21.3-22.6s8.7-22.6 21.3-22.6 21.3 10.1 21.3 22.6-8.7 22.6-21.3 22.6z"/><path d="m425.598 33.7004c7-1.9 12.1-8.3 12.1-15.8 0-9.00001-7.6-16.50001-18.7-16.50001h-32.2c-3.3 0-5.7 2.4-5.7 5.7v55.20001c0 3.3 2.4 5.7 5.7 5.7h36.2c11.6 0 18.5-8.6 18.5-18 0-9.1-6.9-15.8-15.9-16.3zm-30.3-20.3h18.4c5.1 0 8.4 3.3 8.4 7.5 0 4.1-3.3 7.5-8.4 7.5-4.6 0-18.4 0-18.4 0zm21.6 42.5c-5.3 0-21.6 0-21.6 0v-16.3h21.6c5.5 0 9.1 3.6 9.1 8.1 0 4.6-3.5 8.2-9.1 8.2z"/><path d="m463.901 1.40039h-14.6v66.50001h14.6z"/><path d="m240.598 58.5 8.7-10.4c6 5 12.3 8.1 19.9 8.1 6 0 9.6-2.4 9.6-6.3v-.2c0-3.7-2.3-5.6-13.4-8.5-13.4-3.4-22.1-7.2-22.1-20.4v-.2c0-12.1 9.7-20.1 23.4-20.1 9.7 0 18 3.1 24.8 8.5l-7.6 11.1c-5.9-4.1-11.7-6.6-17.4-6.6-5.6 0-8.6 2.6-8.6 5.8v.2c0 4.4 2.9 5.8 14.4 8.8 13.5 3.5 21.2 8.4 21.2 20v.2c0 13.3-10.1 20.7-24.5 20.7-10.2 0-20.4-3.5-28.4-10.7z"/><path d="m362.801 94.8008c0-8.6 2.4-12.5 11.2-12.5h13.3c16.3 0 25.4 6.7 25.4 21.1002 0 10.7-4.9 17-14 19.7v.3l17.5 25.4h-16.6l-15.5-24.2h-6.9v24.2h-14.4zm24.4 18.2002c7.3 0 11.2-2.4 11.2-9.5 0-7.1002-3.8-9.2002-11.2-9.2002h-9.9v18.7002z"/><path d="m318.999 81c-19.8 0-36.8 13.7-36.8 34.5s17 34.5 36.8 34.5 36.8-13.7 36.8-34.5-17-34.5-36.8-34.5zm0 57c-12.6 0-21.2-10.1-21.2-22.5s8.6-22.5 21.2-22.5 21.2 10.1 21.2 22.5c.1 12.5-8.6 22.5-21.2 22.5z"/><path d="m246.999 95.8008h-20.3v-13.5h55.1v13.5h-20.3v53.1002h-14.5z"/><path d="m169.5 139.4 8.7-10.4c6 4.9 12.3 8.1 19.9 8.1 6 0 9.6-2.4 9.6-6.3v-.2c0-3.7-2.3-5.6-13.4-8.5-13.4-3.4-22.1-7.1-22.1-20.3v-.2c0-12.1 9.7-20.1 23.3-20.1 9.7 0 18 3 24.7 8.5l-7.6 11c-5.9-4.1-11.7-6.6-17.3-6.6s-8.6 2.6-8.6 5.8v.2c0 4.4 2.9 5.8 14.4 8.7 13.5 3.5 21.1 8.4 21.1 20v.2c0 13.2-10.1 20.6-24.4 20.6-10.1.1-20.3-3.4-28.3-10.5z"/><path d="m437.3 93.9992h30v-11.8h-33.3c-8.6 0-11 3.9-11 12.4v8.6998 33 .1c0 8.5 2.4 12.4 11 12.4h33.3v-11.8h-30v-.9-14.9h27.5v-.1-11.2-.1h-27.5v-6.5z"/></g><path d="m6.20106 52.3991c-6.600001 4.6-8.2 13.7-3.6 20.3l49.80004 71.0999c4.6 6.6 13.7 8.2 20.3 3.6l71.0999-49.7999c6.6-4.6 8.2-13.7 3.6-20.3l-49.7999-71.09999c-4.6-6.600004-13.7-8.2-20.3-3.6z" fill="#00b0b9"/><path d="m133.102 91.1988v-54.6c0-8.4-6.9-15.3-15.3-15.3h-85.5997c-8.4 0-15.3 6.9-15.3 15.3v8.3h46.3v92.6002h23.6v-46.3002z" fill="#fff"/><path d="m63.2023 44.8984h-46.3v77.1996c0 8.4 6.9 15.3 15.3 15.3h31z" fill="#df4661"/><path d="m86.8008 91.1992v46.2998h31.0002c8.4 0 15.3-6.9 15.3-15.3v-30.9998z" fill="#f6b700"/><path d="m91.6008 68.1h13.4002c2.7 0 4.8-2.2 4.8-4.8v-13.5c0-2.7-2.2-4.8-4.8-4.8h-13.4002c-2.7 0-4.8 2.2-4.8 4.8v13.4c0 2.7 2.2 4.9 4.8 4.9z" fill="#0069b1"/></g></svg>