<svg fill="none" height="39" viewBox="0 0 39 39" width="39" xmlns="http://www.w3.org/2000/svg"><g fill="#b5b5b5"><path d="m17.4974 17.3828h-11.99349v14.0214c0 .3824.25249.6374.63123.6374h11.36226z"/><path d="m17.5 9.38477h-12.69159c-.38075 0-.63458.26652-.63458.66633v5.9967h13.32617z"/><path d="m34.1818 9.38477h-12.6916v6.66303h13.3262v-5.9967c0-.33318-.2538-.66633-.6346-.66633z"/><path d="m21.4902 32.0416h11.3623c.3788 0 .6313-.255.6313-.6374v-14.0214h-11.9936z"/><path d="m25.8964 8.1295c2.5317-.66199 3.9309-2.31698 3.5311-4.36916-.1332-.7282-.5996-1.39019-1.3325-1.85359-.9993-.59579-2.2652-.66199-3.5977-.26479-2.5984.79439-4.1973 3.44237-4.9968 5.16355-.7995-1.72118-2.3985-4.36916-4.9969-5.16355-1.3325-.3972-2.5983-.331-3.5977.26479-.7329.3972-1.19922 1.0592-1.33247 1.85359-.39975 1.98598.99937 3.64097 3.53107 4.36916 1.4658.3972 6.0628 1.19159 6.2627 1.25779h.1333.1332c.1999-.0662 4.797-.86059 6.2627-1.25779zm-.9994-5.16355c.3998-.1324.8662-.1986 1.2659-.1986.4664 0 .9328.1324 1.2659.33099.3997.1986.5996.5296.7328.9268.3332 1.91978-1.8654 2.64797-2.5983 2.84657-.9994.2648-3.5311.7282-4.9968.99299.5996-1.52258 1.9987-4.17056 4.3305-4.89875zm-11.4594 3.90576c-.6662-.1986-2.9314-.92679-2.5983-2.84657.0666-.3972.3331-.7282.7329-.9268.3331-.19859.7995-.33099 1.2658-.33099.3998 0 .7995.0662 1.2659.1986 2.3318.72819 3.731 3.37617 4.3972 4.89875-1.5324-.26479-4.0641-.72819-5.0635-.99299z"/></g></svg>