<svg viewBox="0 0 500 500" fill="none" xmlns="http://www.w3.org/2000/svg">
	<path
		d="M224.337 222.835H70.5742V402.597C70.5742 407.499 73.8113 410.768 78.667 410.768H224.337V222.835Z"
		fill="#DF4661" />
	<path
		d="M224.364 120.31H61.6512C56.7699 120.31 53.5156 123.727 53.5156 128.852V205.734H224.364V120.31Z"
		fill="#DF4661" />
	<path
		d="M438.232 120.312H275.52V205.737H446.368V128.855C446.368 124.584 443.113 120.312 438.232 120.312Z"
		fill="#DF4661" />
	<path
		d="M275.52 410.768H421.19C426.046 410.768 429.283 407.499 429.283 402.597V222.835H275.52V410.768Z"
		fill="#DF4661" />
	<path
		d="M332.01 104.189C364.468 95.7019 382.406 74.4841 377.281 48.1741C375.572 38.8383 369.593 30.3512 360.198 24.4102C347.385 16.7718 331.156 15.9231 314.073 21.0153C280.761 31.1999 260.261 65.1483 250.011 87.2148C239.761 65.1483 219.261 31.1999 185.949 21.0153C168.866 15.9231 152.637 16.7718 139.824 24.4102C130.429 29.5025 124.45 37.9896 122.741 48.1741C117.616 73.6354 135.554 94.8532 168.012 104.189C186.803 109.281 245.74 119.466 248.303 120.314C249.157 120.314 249.157 120.314 250.011 120.314C250.865 120.314 250.865 120.314 251.719 120.314C254.282 119.466 313.219 109.281 332.01 104.189ZM319.198 37.9896C324.323 36.2921 330.302 35.4434 335.427 35.4434C341.406 35.4434 347.385 37.1409 351.656 39.687C356.781 42.2331 359.343 46.4767 361.052 51.5689C365.323 76.1815 337.135 85.5174 327.74 88.0635C314.927 91.4583 282.469 97.3993 263.678 100.794C271.365 81.2738 289.302 47.3254 319.198 37.9896ZM172.283 88.0635C163.741 85.5174 134.699 76.1815 138.97 51.5689C139.824 46.4767 143.241 42.2331 148.366 39.687C152.637 37.1409 158.616 35.4434 164.595 35.4434C169.72 35.4434 174.845 36.2921 180.824 37.9896C210.72 47.3254 228.657 81.2738 237.199 100.794C217.553 97.3993 185.095 91.4583 172.283 88.0635Z"
		fill="#DF4661" />
</svg>