<svg width="33" height="31" viewBox="0 0 33 31" fill="none" xmlns="http://www.w3.org/2000/svg">
<path d="M31.4266 29.5H1.57339C1.84913 26.6513 2.89535 23.9297 4.60413 21.6486C6.45299 19.1806 8.98106 17.3566 11.8454 16.4024C13.0169 17.2679 14.4345 17.7454 15.9034 17.7484H15.9064L17.0921 17.7484L17.095 17.7484C18.5639 17.7454 19.9816 17.268 21.1532 16.4024C24.0178 17.3563 26.5462 19.1803 28.3953 21.6483C30.1043 23.9294 31.1507 26.6512 31.4266 29.5ZM11.8458 7.71816L11.846 7.6961V5.87594L11.8458 5.85387C11.8289 4.70524 12.2583 3.60357 13.0285 2.78954C13.7948 1.97956 14.8349 1.52056 15.9187 1.5H17.079C18.1628 1.52056 19.2029 1.97956 19.9692 2.78954C20.7394 3.60356 21.1688 4.70523 21.1519 5.85387L21.1517 5.87594V7.69845L21.1518 7.71992C21.1683 8.86815 20.7388 9.96925 19.9686 10.7828C19.2023 11.5922 18.1626 12.0509 17.0791 12.0713H15.9186C14.8348 12.0509 13.7948 11.592 13.0284 10.7821C12.2583 9.96826 11.8289 8.86669 11.8458 7.71816Z" stroke="#A4A4A4" stroke-width="3" stroke-linecap="round" stroke-linejoin="round"/>
</svg>
