<svg enable-background="new 0 0 366 42" viewBox="0 0 366 42" xmlns="http://www.w3.org/2000/svg"><path d="m59.2 6.3c-1.8 0-3.4 1-4.2 3-2.6 6.4-10.3 25.5-10.3 25.5h6.3l2.5-6.4h11.4l2.5 6.4h6.3s-7.7-19.1-10.3-25.5c-.8-2-2.4-3-4.2-3zm-3.9 17.4 3.8-9.8 3.8 9.8z"/><path d="m115.3 6.5c-8.3 0-15.5 5.8-15.5 14.6s7.2 14.6 15.5 14.6 15.5-5.8 15.5-14.6-7.2-14.6-15.5-14.6zm0 24.1c-5.3 0-9-4.2-9-9.5s3.6-9.5 9-9.5c5.3 0 9 4.2 9 9.5 0 5.2-3.7 9.5-9 9.5z"/><path d="m153.2 20.5c2.9-.8 5.1-3.5 5.1-6.7 0-3.8-3.2-6.9-7.9-6.9h-13.5c-1.4 0-2.4 1-2.4 2.4v23.2c0 1.4 1 2.4 2.4 2.4h15.2c4.9 0 7.8-3.6 7.8-7.6 0-3.8-2.9-6.6-6.7-6.8zm-12.7-8.6h7.7c2.2 0 3.5 1.4 3.5 3.1s-1.4 3.1-3.5 3.1c-1.9 0-7.7 0-7.7 0zm9.1 17.9c-2.3 0-9.1 0-9.1 0v-6.8h9.1c2.3 0 3.8 1.5 3.8 3.4s-1.5 3.4-3.8 3.4z"/><path d="m163.2 6.9h6.2v28h-6.2z"/><path d="m75.3 30.9 3.7-4.4c2.5 2.1 5.2 3.4 8.4 3.4 2.5 0 4.1-1 4.1-2.6v-.1c0-1.6-1-2.4-5.7-3.6-5.7-1.4-9.3-3-9.3-8.6 0-5.1 4.1-8.5 9.8-8.5 4.1 0 7.6 1.3 10.4 3.6l-3.2 4.7c-2.5-1.8-4.9-2.8-7.3-2.8s-3.6 1.1-3.6 2.4v.1c0 1.8 1.2 2.4 6.1 3.7 5.7 1.5 8.9 3.5 8.9 8.4v.1c0 5.6-4.3 8.7-10.3 8.7-4.3 0-8.6-1.5-12-4.5z"/><path d="m263 12.2c0-3.6 1-5.3 4.7-5.3h5.6c6.9 0 10.7 2.8 10.7 8.9 0 4.5-2.1 7.2-5.9 8.3v.1l7.4 10.7h-7l-6.5-10.2h-2.9v10.2h-6.1zm10.3 7.6c3.1 0 4.7-1 4.7-4s-1.6-3.9-4.7-3.9h-4.2v7.9z"/><path d="m244.6 6.4c-8.3 0-15.5 5.8-15.5 14.5 0 8.8 7.2 14.5 15.5 14.5s15.5-5.8 15.5-14.5c0-8.8-7.2-14.5-15.5-14.5zm0 24c-5.3 0-8.9-4.2-8.9-9.5 0-5.2 3.6-9.5 8.9-9.5s8.9 4.2 8.9 9.5c0 5.2-3.6 9.5-8.9 9.5z"/><path d="m214.2 12.6h-8.5v-5.7h23.2v5.7h-8.5v22.3h-6.2z"/><path d="m181.6 30.9 3.6-4.4c2.5 2.1 5.2 3.4 8.4 3.4 2.5 0 4-1 4-2.6v-.1c0-1.6-1-2.4-5.6-3.6-5.6-1.4-9.3-3-9.3-8.6 0-5.1 4.1-8.4 9.8-8.4 4.1 0 7.6 1.3 10.4 3.6l-3.2 4.6c-2.5-1.7-4.9-2.8-7.3-2.8s-3.6 1.1-3.6 2.4v.1c0 1.8 1.2 2.4 6 3.7 5.7 1.5 8.9 3.5 8.9 8.4v.1c0 5.6-4.2 8.7-10.3 8.7-4.1 0-8.4-1.5-11.8-4.5z"/><path d="m294.4 11.8h12.6v-5h-14c-3.6 0-4.6 1.6-4.6 5.2v3.7 13.9c0 3.6 1 5.2 4.6 5.2h14v-5h-12.6v-.4-6.3h11.6v-4.7h-11.6v-2.7z"/><path d="m1.5 13.5c-1.6 1.1-2 3.4-.9 5l12.4 17.6c1.1 1.6 3.4 2 5 .9l17.6-12.3c1.6-1.1 2-3.4.9-5l-12.4-17.6c-1.1-1.6-3.4-2-5-.9z" fill="#00b0b9"/><path d="m32.9 23.1v-13.5c0-2.1-1.7-3.8-3.8-3.8h-21.1c-2.1 0-3.8 1.7-3.8 3.8v2.1h11.5v22.9h5.8v-11.5z" fill="#fff"/><path d="m15.6 11.7h-11.4v19.1c0 2.1 1.7 3.8 3.8 3.8h7.7v-22.9z" fill="#df4661"/><path d="m21.5 23.1v11.5h7.7c2.1 0 3.8-1.7 3.8-3.8v-7.7z" fill="#f6b700"/><path d="m22.7 17.4h3.3c.7 0 1.2-.5 1.2-1.2v-3.3c0-.7-.5-1.2-1.2-1.2h-3.3c-.7 0-1.2.5-1.2 1.2v3.3c0 .6.5 1.2 1.2 1.2z" fill="#0069b1"/></svg>